<?xml version="1.0" encoding="utf-8"?>
<!-- Generator: Adobe Illustrator 27.2.0, SVG Export Plug-In . SVG Version: 6.00 Build 0)  -->
<svg version="1.1" id="Layer_1" xmlns="http://www.w3.org/2000/svg" xmlns:xlink="http://www.w3.org/1999/xlink" x="0px" y="0px"
	 viewBox="0 0 979.04 591.84" style="enable-background:new 0 0 979.04 591.84;" xml:space="preserve">
<style type="text/css">
	.st0{fill:#477A94;}
	.st1{font-family:'Bambino-Bold';}
	.st2{font-size:154.0629px;}
	.st3{letter-spacing:15;}
	.st4{fill:#74B8E5;}
</style>
<g>
	<text transform="matrix(1 0 0 1 182.002 537.3038)" class="st0 st1 st2 st3">WUBRG</text>
	<text transform="matrix(1 0 0 1 140.9375 373.4806)" class="st4 st1 st2 st3">JOHNNY </text>
	<g>
		<path d="M148.6,220.5c-7.59,8.31-15.48,16.3-24.5,21.84c-17.54,10.78-36.22,16.55-53.85,10.84
			c-14.69-4.75-26.06-16.28-32.23-30.75c-4.22-9.87-6.05-21.9-1.5-33.23c7.93-19.72,30.99-28.62,48.52-30.78
			c35.81-4.4,74.16,4.47,111.73,14.13c-0.45-1.11-0.85-2.25-1.2-3.41c-4.14-13.93,0.93-26.96,9.76-37.31
			c0.4-5.1,1.13-10.19,2.11-15.24C137.76,99.12,69.8,75.46,24.53,124.61C-9.04,161.06-4.6,214.3,16.57,247.19
			c20.36,31.64,57.16,38.13,86.95,25.01c29.11-12.83,53.6-42.36,65.74-79.29c0.02-0.05,0.04-0.11,0.05-0.16
			c-1.7,5.17-6.84,10.57-9.82,14.56C156.03,211.94,152.4,216.34,148.6,220.5z"/>
		<g>
			<g>
				<path d="M339.73,208.56c-12.35,4.67-24.15,5.17-36.03,4.38c-6.22-0.41-12.42-1.23-18.57-2.25c-3.02-0.5-3.9,0.7-4.31,3.26
					c-0.84,5.31-1.64,10.63-2.74,15.88c-1.89,9.09-3.27,9.79-12.97,6.54c0.72-3.25,1.46-6.59,2.2-9.94
					c0.72-3.29,2.39-6.66-1.06-10.2c-1.77,7.51-6.3,10.97-13.87,10.7c-0.14-4.95,2.98-9.42,1.64-15.35
					c-5.75,5.37-5.01,12.38-8.32,17.46c-7.22-0.36-7.2-0.36-7.38-7.2c-0.11-4.19-0.3-8.38-0.45-12.57c-0.37-0.12-0.73-0.23-1.1-0.35
					c-0.9,1.84-2.05,3.61-2.64,5.55c-0.88,2.92-1.23,6-2.08,8.93c-0.45,1.56-1.66,4.25-2.24,4.17c-2.14-0.26-5.29-0.94-6-2.44
					c-1.45-3.08-2.65-7-2.02-10.19c1.25-6.35,3.69-12.48,5.88-18.62c0.79-2.22,0.41-3.52-1.26-5.19c-3.16-3.19-5.86-6.82-8.88-10.15
					c-1.32-1.46-2.8-2.91-4.49-3.88c-8.62-5.01-14.6-10.63-11.3-24.42c2.14-8.9,5.25-17.05,10.8-24.43
					c3.18-4.24,4.99-9.49,7.96-13.93c14.73-22.01,45.59-27,65.63-13.98c10.91,7.09,22.78,7.24,34.8,3.44
					c7.73-2.44,15.31-5.37,23.06-8.11c0.76,11.92-10.02,27.54-26.56,39.16c2.76,6.77,5.49,13.46,8.27,20.28
					c9.68-5.15,13.1-14.43,15.67-24.29c1.57-6.05,2.95-12.17,4.97-18.07c2.15-6.25,6.89-9.72,13.95-10.61
					c-3.02,9.33-10.74,17.06-7.47,28.47c12.21-4.9,15.04-16.45,20.84-26.15c-11.68-6.59-22.76-13.28-27.07-26.74
					c-2.23-6.99-1.59-13.94,0.52-21.24c2.96,6.06,5.91,12.12,9.07,18.59c10.08-10.53,7.85-29.98-3.52-36.51
					c-2.64-1.52-6.36-1.65-9.56-1.54c-3.28,0.11-6.59,1.05-9.76,2.04c-12.71,3.99-23-0.04-31.82-9.21c9.8-0.27,19.6-0.54,29.87-0.82
					c-1.12-6.33-4.54-9.92-8.63-12.12c-6.73-3.62-13.86-6.59-21.02-9.27c-6.87-2.57-14-4.43-20.92-7.62
					c6.61,0.08,13.25-0.28,19.81,0.31c18.58,1.67,36.3,6.4,52.17,16.63c26.39,17.02,41.09,40.8,41.63,72.67
					c0.01,0.51,0.21,1.01,0.52,2.4c9.69-14.86,2.28-29.34,1.99-43.87c0.8,1.65,1.62,3.3,2.4,4.96c0.81,1.71,1.65,3.41,2.38,5.15
					c5.79,13.93,9.82,28.15,8.89,43.53c-1.28,21.01-10.9,36.96-28.09,48.68c-7.08,4.83-14.13,9.71-21.11,14.7
					c-2.33,1.67-4.39,3.72-6.75,5.75c7.63,2.5,20.98-0.65,45.12-10.39c-10.61,22.39-24.68,33.62-48.98,31.57
					c-8.23-0.7-16.48-1.24-24.71-1.9c-2.83-0.23-4.84,0.57-7.28,2.48c-3.43,2.7-8.03,3.91-11.92,5.67
					c2.18,2.67,5.63,4.21,14.91,6.21C327.46,205.82,333.13,207.1,339.73,208.56z M295.49,185.64c0.03-0.11,0.07-0.22,0.1-0.33
					c2.13,0.47,4.23,1.12,6.39,1.38c8.49,1.02,12.81-1.91,13.17-9.73c0.34-7.55-2.73-14.09-9.18-18.18
					c-6.96-4.4-14.38-3.1-21.07,0.81c-6.34,3.71-10.09,9.49-10.05,17.12c0,0.92,1.2,2.34,2.14,2.68
					C283.11,181.61,289.31,183.59,295.49,185.64z M230.53,171.54c5.04,0.27,10.06,0.78,15.08,0.73c3.97-0.04,5.83-2.56,6.01-6.53
					c0.33-7.47-3.33-12.94-8.43-17.82c-11.7-11.18-24.36-6.42-30.54,6.53c-2.25,4.73-0.98,9.04,3.7,11.39
					C220.83,168.09,225.67,169.62,230.53,171.54z M264.11,177.23c-2.68,7.52-5.09,14.26-7.5,21c-0.78-0.2-1.56-0.4-2.34-0.61
					c1.09-7.85,2.19-15.69,3.28-23.54c-0.43-0.11-0.87-0.22-1.3-0.33c-7.06,7.64-9.47,16.99-9.58,26.53
					c5.87,1.68,11.16,3.2,16.71,4.79C267.29,196.32,267.59,187.26,264.11,177.23z"/>
				<path d="M255.33,39.68c-0.05-3.7-0.09-7.4-0.14-11.28c-7.24-1.65-12.26,5.15-20.39,5.55c2.58-3.9,4.4-7.26,6.79-10.14
					c6.73-8.07,14.63-14.89,25.16-16.99c4.7-0.94,10.07-0.34,14.75,0.95c5.33,1.47,8.15,8.1,6.78,13.51
					c-0.88,3.47-2.25,5.7-6.91,5.27c-8.86-0.81-15.95,3.43-21.84,9.8c-1.07,1.15-2.07,2.36-3.1,3.55
					C256.07,39.83,255.7,39.76,255.33,39.68z"/>
				<path d="M293.92,41.05c8.14-0.08,11.07,7.85,15.51,10.83c5.9-1.37,10.66-2.95,15.53-3.47c4.88-0.52,8.93,2.29,10.22,5.87
					c1.36,3.77-0.23,9.29-3.54,12.32c-8.54,7.83-22.13,5.09-27.66-5.64C300.61,54.42,297.35,47.83,293.92,41.05z"/>
			</g>
		</g>
	</g>
</g>
</svg>
